<svg xmlns="http://www.w3.org/2000/svg" xmlns:xlink="http://www.w3.org/1999/xlink" width="1080" zoomAndPan="magnify" viewBox="0 0 810 809.999993" height="1080" preserveAspectRatio="xMidYMid meet" version="1.0"><defs><clipPath id="8a154a73a4"><path d="M 90.734375 57.039062 L 719.234375 57.039062 L 719.234375 685.539062 L 90.734375 685.539062 Z M 90.734375 57.039062 " clip-rule="nonzero"/></clipPath><clipPath id="1bfe63f666"><path d="M 213.425781 106.402344 L 602.601562 106.402344 L 602.601562 385.3125 L 213.425781 385.3125 Z M 213.425781 106.402344 " clip-rule="nonzero"/></clipPath><clipPath id="916d195fb3"><path d="M 210.765625 413.574219 L 595.738281 413.574219 L 595.738281 568.121094 L 210.765625 568.121094 Z M 210.765625 413.574219 " clip-rule="nonzero"/></clipPath><clipPath id="c79383e1a5"><path d="M 201 401.644531 L 609 401.644531 L 609 408.394531 L 201 408.394531 Z M 201 401.644531 " clip-rule="nonzero"/></clipPath></defs><g clip-path="url(#8a154a73a4)"><path fill="#ffffff" d="M 719.234375 371.289062 C 719.234375 376.429688 719.109375 381.570312 718.855469 386.707031 C 718.605469 391.84375 718.226562 396.972656 717.722656 402.089844 C 717.21875 407.207031 716.589844 412.308594 715.835938 417.398438 C 715.078125 422.484375 714.199219 427.550781 713.199219 432.59375 C 712.195312 437.640625 711.066406 442.65625 709.816406 447.644531 C 708.570312 452.632812 707.195312 457.589844 705.703125 462.507812 C 704.210938 467.429688 702.597656 472.3125 700.867188 477.15625 C 699.132812 481.996094 697.28125 486.792969 695.316406 491.546875 C 693.347656 496.296875 691.261719 500.996094 689.0625 505.648438 C 686.867188 510.296875 684.554688 514.886719 682.128906 519.425781 C 679.707031 523.960938 677.171875 528.433594 674.527344 532.84375 C 671.882812 537.253906 669.132812 541.597656 666.273438 545.875 C 663.417969 550.152344 660.457031 554.355469 657.394531 558.484375 C 654.328125 562.617188 651.167969 566.671875 647.90625 570.644531 C 644.640625 574.621094 641.285156 578.515625 637.828125 582.324219 C 634.375 586.136719 630.832031 589.859375 627.195312 593.496094 C 623.558594 597.132812 619.832031 600.679688 616.023438 604.132812 C 612.210938 607.585938 608.320312 610.945312 604.34375 614.207031 C 600.367188 617.46875 596.316406 620.632812 592.183594 623.695312 C 588.054688 626.757812 583.851562 629.71875 579.574219 632.578125 C 575.296875 635.433594 570.953125 638.183594 566.542969 640.828125 C 562.132812 643.472656 557.65625 646.007812 553.121094 648.429688 C 548.585938 650.855469 543.992188 653.167969 539.34375 655.367188 C 534.695312 657.566406 529.996094 659.648438 525.242188 661.617188 C 520.492188 663.585938 515.695312 665.433594 510.851562 667.167969 C 506.011719 668.898438 501.128906 670.511719 496.207031 672.007812 C 491.285156 673.5 486.332031 674.871094 481.34375 676.121094 C 476.351562 677.371094 471.335938 678.496094 466.292969 679.5 C 461.25 680.503906 456.183594 681.382812 451.097656 682.136719 C 446.007812 682.890625 440.90625 683.519531 435.789062 684.023438 C 430.667969 684.527344 425.542969 684.90625 420.40625 685.160156 C 415.269531 685.410156 410.128906 685.539062 404.984375 685.539062 C 399.84375 685.539062 394.703125 685.410156 389.566406 685.160156 C 384.429688 684.90625 379.300781 684.527344 374.183594 684.023438 C 369.066406 683.519531 363.964844 682.890625 358.875 682.136719 C 353.789062 681.382812 348.722656 680.503906 343.679688 679.5 C 338.632812 678.496094 333.617188 677.371094 328.628906 676.121094 C 323.640625 674.871094 318.683594 673.5 313.765625 672.007812 C 308.84375 670.511719 303.960938 668.898438 299.117188 667.167969 C 294.277344 665.433594 289.480469 663.585938 284.726562 661.617188 C 279.976562 659.648438 275.277344 657.566406 270.625 655.367188 C 265.976562 653.167969 261.386719 650.855469 256.847656 648.429688 C 252.3125 646.007812 247.839844 643.472656 243.429688 640.828125 C 239.019531 638.183594 234.675781 635.433594 230.398438 632.578125 C 226.121094 629.71875 221.917969 626.757812 217.789062 623.695312 C 213.65625 620.632812 209.601562 617.46875 205.628906 614.207031 C 201.652344 610.945312 197.757812 607.585938 193.949219 604.132812 C 190.136719 600.679688 186.414062 597.132812 182.777344 593.496094 C 179.140625 589.859375 175.597656 586.136719 172.140625 582.324219 C 168.6875 578.515625 165.328125 574.621094 162.066406 570.644531 C 158.804688 566.671875 155.640625 562.617188 152.578125 558.484375 C 149.515625 554.355469 146.554688 550.152344 143.695312 545.875 C 140.839844 541.597656 138.089844 537.253906 135.445312 532.84375 C 132.800781 528.433594 130.265625 523.960938 127.84375 519.425781 C 125.417969 514.886719 123.105469 510.296875 120.90625 505.648438 C 118.707031 500.996094 116.625 496.296875 114.65625 491.546875 C 112.6875 486.792969 110.839844 481.996094 109.105469 477.15625 C 107.375 472.3125 105.761719 467.429688 104.265625 462.507812 C 102.773438 457.589844 101.402344 452.632812 100.152344 447.644531 C 98.902344 442.65625 97.777344 437.640625 96.773438 432.59375 C 95.769531 427.550781 94.890625 422.484375 94.136719 417.398438 C 93.382812 412.308594 92.753906 407.207031 92.25 402.089844 C 91.746094 396.972656 91.367188 391.84375 91.113281 386.707031 C 90.863281 381.570312 90.734375 376.429688 90.734375 371.289062 C 90.734375 366.144531 90.863281 361.003906 91.113281 355.867188 C 91.367188 350.730469 91.746094 345.605469 92.25 340.484375 C 92.753906 335.367188 93.382812 330.265625 94.136719 325.175781 C 94.890625 320.089844 95.769531 315.023438 96.773438 309.980469 C 97.777344 304.9375 98.902344 299.921875 100.152344 294.929688 C 101.402344 289.941406 102.773438 284.988281 104.265625 280.066406 C 105.761719 275.144531 107.375 270.261719 109.105469 265.421875 C 110.839844 260.578125 112.6875 255.78125 114.65625 251.03125 C 116.625 246.277344 118.707031 241.578125 120.90625 236.929688 C 123.105469 232.28125 125.417969 227.6875 127.84375 223.152344 C 130.265625 218.617188 132.800781 214.140625 135.445312 209.730469 C 138.089844 205.320312 140.839844 200.976562 143.695312 196.699219 C 146.554688 192.421875 149.515625 188.21875 152.578125 184.089844 C 155.640625 179.957031 158.804688 175.90625 162.066406 171.929688 C 165.328125 167.953125 168.6875 164.0625 172.140625 160.25 C 175.597656 156.441406 179.140625 152.714844 182.777344 149.078125 C 186.414062 145.441406 190.136719 141.898438 193.949219 138.445312 C 197.757812 134.988281 201.652344 131.632812 205.628906 128.371094 C 209.601562 125.105469 213.65625 121.945312 217.789062 118.878906 C 221.917969 115.816406 226.121094 112.855469 230.398438 110 C 234.675781 107.140625 239.019531 104.390625 243.429688 101.746094 C 247.839844 99.101562 252.3125 96.566406 256.847656 94.144531 C 261.386719 91.71875 265.976562 89.40625 270.625 87.210938 C 275.277344 85.011719 279.976562 82.925781 284.726562 80.957031 C 289.480469 78.992188 294.277344 77.140625 299.117188 75.40625 C 303.960938 73.675781 308.84375 72.0625 313.765625 70.570312 C 318.683594 69.078125 323.640625 67.703125 328.628906 66.457031 C 333.617188 65.207031 338.632812 64.078125 343.679688 63.074219 C 348.722656 62.074219 353.789062 61.195312 358.875 60.4375 C 363.964844 59.683594 369.066406 59.054688 374.183594 58.550781 C 379.300781 58.046875 384.429688 57.667969 389.566406 57.417969 C 394.703125 57.164062 399.84375 57.039062 404.984375 57.039062 C 410.128906 57.039062 415.269531 57.164062 420.40625 57.417969 C 425.542969 57.667969 430.667969 58.046875 435.789062 58.550781 C 440.90625 59.054688 446.007812 59.683594 451.097656 60.4375 C 456.183594 61.195312 461.25 62.074219 466.292969 63.074219 C 471.335938 64.078125 476.351562 65.207031 481.34375 66.457031 C 486.332031 67.703125 491.285156 69.078125 496.207031 70.570312 C 501.128906 72.0625 506.011719 73.675781 510.851562 75.40625 C 515.695312 77.140625 520.492188 78.992188 525.242188 80.957031 C 529.996094 82.925781 534.695312 85.011719 539.34375 87.210938 C 543.996094 89.40625 548.585938 91.71875 553.121094 94.144531 C 557.65625 96.566406 562.132812 99.101562 566.542969 101.746094 C 570.953125 104.390625 575.296875 107.140625 579.574219 110 C 583.851562 112.855469 588.054688 115.816406 592.183594 118.878906 C 596.316406 121.945312 600.367188 125.105469 604.34375 128.371094 C 608.320312 131.632812 612.210938 134.988281 616.023438 138.445312 C 619.832031 141.898438 623.558594 145.441406 627.195312 149.078125 C 630.832031 152.714844 634.375 156.441406 637.828125 160.25 C 641.285156 164.0625 644.640625 167.953125 647.90625 171.929688 C 651.167969 175.90625 654.332031 179.957031 657.394531 184.089844 C 660.457031 188.21875 663.417969 192.421875 666.273438 196.699219 C 669.132812 200.976562 671.882812 205.320312 674.527344 209.730469 C 677.171875 214.140625 679.707031 218.617188 682.128906 223.152344 C 684.554688 227.6875 686.867188 232.28125 689.0625 236.929688 C 691.261719 241.578125 693.347656 246.277344 695.316406 251.03125 C 697.28125 255.78125 699.132812 260.578125 700.867188 265.421875 C 702.597656 270.261719 704.210938 275.144531 705.703125 280.066406 C 707.195312 284.988281 708.570312 289.941406 709.816406 294.929688 C 711.066406 299.921875 712.195312 304.9375 713.199219 309.980469 C 714.199219 315.023438 715.078125 320.089844 715.835938 325.175781 C 716.589844 330.265625 717.21875 335.367188 717.722656 340.484375 C 718.226562 345.605469 718.605469 350.730469 718.855469 355.867188 C 719.109375 361.003906 719.234375 366.144531 719.234375 371.289062 Z M 719.234375 371.289062 " fill-opacity="1" fill-rule="nonzero"/></g><g clip-path="url(#1bfe63f666)"><path fill="#e10000" d="M 236.292969 385.3125 L 579.332031 385.3125 C 592.171875 385.3125 602.601562 374.878906 602.601562 362.035156 L 602.601562 352.003906 C 602.601562 349.996094 601.800781 347.988281 600.597656 346.382812 L 583.34375 325.113281 C 580.535156 321.503906 578.929688 317.488281 578.929688 313.074219 L 578.929688 140.515625 C 578.929688 121.652344 563.683594 106.402344 544.828125 106.402344 L 271.199219 106.402344 C 252.34375 106.402344 237.097656 121.652344 237.097656 140.515625 L 237.097656 312.675781 C 237.097656 317.089844 235.492188 321.503906 232.683594 324.714844 L 215.429688 346.785156 C 214.226562 348.390625 213.425781 350.398438 213.425781 352.402344 L 213.425781 362.4375 C 213.425781 375.277344 223.855469 385.3125 236.292969 385.3125 M 444.925781 352.003906 C 444.925781 358.421875 439.710938 363.640625 433.289062 363.640625 L 383.136719 363.640625 C 376.71875 363.640625 371.503906 358.421875 371.503906 352.003906 L 371.503906 349.59375 L 445.328125 349.59375 L 445.328125 352.003906 Z M 271.199219 289.398438 L 271.199219 140.515625 L 544.828125 140.515625 L 544.828125 315.484375 L 271.199219 315.484375 Z M 427.671875 177.433594 L 443.320312 186.261719 L 388.355469 282.578125 L 372.707031 273.746094 Z M 361.875 197.902344 L 329.777344 230.003906 L 361.875 262.109375 L 349.035156 274.953125 L 316.9375 242.847656 L 304.5 230.003906 L 317.339844 217.164062 L 349.4375 185.058594 Z M 498.6875 217.164062 L 511.527344 230.003906 L 498.6875 242.847656 L 466.589844 274.953125 L 454.152344 262.109375 L 486.25 230.003906 L 454.152344 197.902344 L 466.992188 185.058594 Z M 498.6875 217.164062 " fill-opacity="1" fill-rule="nonzero"/></g><g clip-path="url(#916d195fb3)"><path fill="#0c0a0f" d="M 339.042969 566.113281 L 320.347656 566.113281 L 303.058594 521.757812 L 246.167969 521.757812 L 229.078125 566.113281 L 210.785156 566.113281 L 266.871094 422.203125 L 283.15625 422.203125 Z M 297.628906 505.699219 L 281.546875 462.34375 C 281.144531 461.273438 280.476562 459.335938 279.539062 456.523438 C 278.597656 453.714844 277.699219 450.796875 276.84375 447.773438 C 275.957031 444.777344 275.25 442.476562 274.710938 440.871094 C 273.773438 445.015625 272.703125 449.058594 271.496094 452.992188 C 270.289062 456.953125 269.285156 460.070312 268.480469 462.34375 L 252.195312 505.699219 Z M 373.820312 413.574219 L 373.820312 493.253906 C 373.820312 495.394531 373.714844 498.207031 373.5 501.683594 C 373.3125 505.164062 373.148438 508.175781 373.015625 510.71875 L 373.820312 510.71875 C 374.625 509.648438 375.832031 508.109375 377.4375 506.101562 C 379.046875 504.09375 380.683594 502.046875 382.34375 499.957031 C 384.03125 497.898438 385.480469 496.199219 386.6875 494.859375 L 421.0625 458.53125 L 441.769531 458.53125 L 398.144531 504.496094 L 444.785156 566.113281 L 423.476562 566.113281 L 386.082031 515.9375 L 373.820312 526.574219 L 373.820312 566.113281 L 356.332031 566.113281 L 356.332031 413.574219 Z M 504.488281 456.726562 C 517.625 456.726562 527.339844 459.601562 533.640625 465.355469 C 539.9375 471.109375 543.089844 480.277344 543.089844 492.855469 L 543.089844 566.113281 L 530.222656 566.113281 L 526.804688 550.859375 L 526 550.859375 C 521.308594 556.746094 516.378906 561.097656 511.203125 563.90625 C 506.058594 566.714844 498.929688 568.121094 489.816406 568.121094 C 480.03125 568.121094 471.921875 565.539062 465.492188 560.375 C 459.058594 555.234375 455.839844 547.179688 455.839844 536.207031 C 455.839844 525.503906 460.0625 517.234375 468.503906 511.398438 C 476.949219 505.59375 489.949219 502.421875 507.503906 501.886719 L 525.800781 501.285156 L 525.800781 494.859375 C 525.800781 485.894531 523.855469 479.671875 519.96875 476.195312 C 516.082031 472.714844 510.589844 470.976562 503.484375 470.976562 C 497.855469 470.976562 492.496094 471.804688 487.402344 473.464844 C 482.308594 475.152344 477.550781 477.0625 473.128906 479.207031 L 467.703125 465.957031 C 472.390625 463.414062 477.953125 461.234375 484.386719 459.414062 C 490.820312 457.621094 497.519531 456.726562 504.488281 456.726562 Z M 525.597656 513.527344 L 509.71875 514.128906 C 496.316406 514.664062 487.027344 516.804688 481.855469 520.550781 C 476.707031 524.296875 474.132812 529.585938 474.132812 536.410156 C 474.132812 542.429688 475.96875 546.84375 479.644531 549.65625 C 483.339844 552.464844 488.074219 553.871094 493.835938 553.871094 C 502.949219 553.871094 510.519531 551.355469 516.550781 546.324219 C 522.582031 541.320312 525.597656 533.597656 525.597656 523.160156 Z M 585.464844 418.1875 C 588.144531 418.1875 590.53125 419.085938 592.621094 420.878906 C 594.6875 422.699219 595.71875 425.546875 595.71875 429.429688 C 595.71875 433.175781 594.6875 435.984375 592.621094 437.859375 C 590.53125 439.730469 588.144531 440.667969 585.464844 440.667969 C 582.515625 440.667969 580.039062 439.730469 578.027344 437.859375 C 576.015625 435.984375 575.011719 433.175781 575.011719 429.429688 C 575.011719 425.546875 576.015625 422.699219 578.027344 420.878906 C 580.039062 419.085938 582.515625 418.1875 585.464844 418.1875 Z M 576.417969 458.53125 L 594.109375 458.53125 L 594.109375 566.113281 L 576.417969 566.113281 Z M 576.417969 458.53125 " fill-opacity="1" fill-rule="nonzero"/></g><g clip-path="url(#c79383e1a5)"><path fill="#000000" d="M 608.464844 405.019531 C 608.464844 406.882812 606.960938 408.394531 605.109375 408.394531 L 205.082031 408.394531 C 203.230469 408.394531 201.730469 406.882812 201.730469 405.019531 C 201.730469 403.15625 203.230469 401.644531 205.082031 401.644531 L 605.109375 401.644531 C 606.960938 401.644531 608.464844 403.15625 608.464844 405.019531 Z M 608.464844 405.019531 " fill-opacity="1" fill-rule="nonzero"/></g></svg>